<svg id="Layer_1" data-name="Layer 1" xmlns="http://www.w3.org/2000/svg" viewBox="0 0 245.91 186.12">
  <defs>
    <style>
      .cls-1 {
        fill: #fff;
      }
    </style>
  </defs>
  <title>logo</title>
  <g>
    <path class="cls-1" d="M68.29,128.53c-0.75-.71-1.54-1.36-2.23-2.13a21.6,21.6,0,0,1-5.19-12.16,40.23,40.23,0,0,1,7.56-28.76c5.85-8.28,13.5-14.77,21.86-20.42a56.7,56.7,0,0,1,20.76-9c10.08-2,20.11-1.89,30,1.3a50.32,50.32,0,0,1,10.32,4.83c10.5,6.29,18.35,15.11,24.74,25.38a58.74,58.74,0,0,1,7.65,17.64,37.45,37.45,0,0,1,.67,15.79,17.29,17.29,0,0,1-4.7,9.23c-0.18.18-.32,0.4-0.63,0.78h1.35c11.68-.06,23.36-0.14,35-0.16,3.84,0,7.67.17,11.51,0.27,4.2,0.12,8.4.18,12.51-.91a4.34,4.34,0,0,0,3.6-4.22,4.85,4.85,0,0,0-3.31-4.78,4.52,4.52,0,0,0-5.43,1.25,7.47,7.47,0,0,0-1.15,2.82c-0.21.93-.63,1.79-1.49,1.7a2.7,2.7,0,0,1-1.43-1.64,3,3,0,0,1,.15-1.85,8.85,8.85,0,0,1,7-5.46,7.75,7.75,0,0,1,7.78,4.49c1.95,3.93,0,10.77-6.7,11.08-2.87.13-5.75,0.07-8.63,0.07-18.88,0-37.76-.07-56.63,0a34.26,34.26,0,0,1-11.67-1.5A19.15,19.15,0,0,1,153,126a8.62,8.62,0,0,1-1.21-3c-1.22-4-2.42-8-3.56-12-0.43-1.52-.21-1.72,1.36-1.72,3,0,6-.06,9,0a4.56,4.56,0,0,0,4.3-2.26c1.47-2.32,3-4.61,4.4-7a8.52,8.52,0,0,0,.95-2.31c0.5-2-.32-3.3-2.38-3.86-2.66-.72-5.34-1.34-8-2-1.51-.36-3-0.69-4.56-1a1.25,1.25,0,0,1-1.14-1.15c-0.27-1.37-.63-2.72-1-4.07a3.9,3.9,0,0,0-3.11-2.95c-2.63-.67-5.23-1.45-7.83-2.21-1.71-.5-1.85-0.75-1.9-2.53a34,34,0,0,0-2.7-12.69A14.49,14.49,0,0,0,134,62.72a1.28,1.28,0,0,0-2.27-.13,53,53,0,0,0-3.41,4.16A28,28,0,0,0,123.45,81a54.27,54.27,0,0,0,0,7.65,15.9,15.9,0,0,0,1.17,3.46,5.62,5.62,0,0,1,.61,2.45c-1,5.32-2.19,10.62-3.31,15.92h-0.38c-0.19-.6-0.39-1.2-0.57-1.8s-0.35-1.23-.52-1.84c-1.47-5.1-2.87-10.23-4.46-15.29-0.66-2.1-.21-4.11-0.09-6.16a26,26,0,0,0-3.69-15.82c-1.42-2.25-1.62-2.45-3.8-.49a25.12,25.12,0,0,0-7.07,11.76A2.59,2.59,0,0,1,99,82.93c-3.48.57-7,1.36-9.44,4.2-2.23,2.6-4.28,5.37-6.35,8.11a4.81,4.81,0,0,0-.5,4.79c1.46,4.15,4.2,6.61,8.71,6.83a7.2,7.2,0,0,1,1.18.18c3.41,0.76,3.45.63,2.26,3.8-1.93,5.14-3.93,10.27-6.2,15.26-1.35,3-4.28,4.29-7.3,5.13a12.64,12.64,0,0,1-3.32.32q-33.36,0-66.71,0a34,34,0,0,1-5-.31c-3.65-.55-6.1-3.5-6.29-7.4a8,8,0,0,1,5.7-7.73c4.3-1.12,9.19,1.73,10,5.91a3.29,3.29,0,0,1-.28,1.92,1.8,1.8,0,0,1-1.21.93,5,5,0,0,1-1.36-1.36,0.74,0.74,0,0,1,0-.35,4.53,4.53,0,0,0-3.15-4.26A5.17,5.17,0,0,0,4,120.56a4.43,4.43,0,0,0,2.2,7.34,27.07,27.07,0,0,0,6.49,1c4.75,0.08,9.51-.19,14.27-0.18,13.12,0,26.23.12,39.35,0.19h1.87Z"/>
    <path class="cls-1" d="M225.41,170.33V146.15c1.37,0.18,2.64-.67,3.94.27a0.15,0.15,0,0,0,.12,0c2.45-2.4,5.37-1.84,6.87,1.4a19.23,19.23,0,0,1,1.42,10,13.53,13.53,0,0,1-1.15,4.48c-1.31,2.79-3.82,3.31-6.34,1.54-0.22-.15-0.46-0.29-0.93-0.58l0.34,7a43.83,43.83,0,0,1,5.25.5,16.81,16.81,0,0,1,4.81,1.68c4.43,2.53,4.79,7.83.86,11.1a11.81,11.81,0,0,1-16.69-1.82c-1.12-1.51-1.21-3.12-.23-4.18a1.51,1.51,0,0,1,1.19-.35c1.34,0.25,1.79,1.45,2.43,2.45a10.55,10.55,0,0,0,2,2.65c2.41,1.93,7.54,1,9.31-1.5s0.53-6.33-2.51-6.88a52.38,52.38,0,0,0-9.16-.82c-9.32,0-18.63.18-27.95,0.19q-39.6,0-79.2,0C95.51,173.17,71.24,173,47,173c-10,0-20.07.16-30.11,0.31-2.6,0-5.19.3-7.78,0.42a4.23,4.23,0,0,0-3.81,2.68A4.18,4.18,0,0,0,6,181c1.77,2.2,6.61,3.09,8.92,1.46a10.47,10.47,0,0,0,2.11-2.8,10.55,10.55,0,0,1,1.26-2,2.28,2.28,0,0,1,1.87-.63,2.76,2.76,0,0,1,1.24,1.85,3.64,3.64,0,0,1-.6,2.24c-3.48,5.54-12.68,6.67-17.44,2.17a6.72,6.72,0,0,1,1.25-11,16.92,16.92,0,0,1,8.28-2.14c6.23-.12,12.46,0,18.7,0,1.44,0,2.88.1,4.32,0.1l188,0h1.5Zm8.35-14.55,0.15,0c-0.34-2-.6-4-1-6-0.18-.79-0.72-1.75-1.71-1.49a2.58,2.58,0,0,0-1.57,1.52,16.94,16.94,0,0,0,.19,9.77,1.86,1.86,0,0,0,2,1.42,1.81,1.81,0,0,0,1.65-1.65C233.61,158.16,233.65,157,233.76,155.78Z"/>
    <path class="cls-1" d="M91.23,1.36c6.3,0.13,10.72,3.37,14,8.48,4.66,7.27,5.11,14.83,1.28,22.53A13.36,13.36,0,0,1,85.91,36.8c-7.6-6.32-11-14.59-9.1-24.42a12.35,12.35,0,0,1,8.71-9.94c1.84-.58,3.74-0.94,5.61-1.4Z"/>
    <path class="cls-1" d="M123.47,22.18c0.19-7,2.29-13.27,7.62-18.12,6.43-5.85,16.49-5.31,21.88,1.18a16.14,16.14,0,0,1,3.52,12.23c-0.81,8.59-5.25,14.86-12.77,18.92a13.35,13.35,0,0,1-16.89-3c-2.32-2.58-3-5.82-3.35-9.17C123.42,23.54,123.47,22.86,123.47,22.18Z"/>
    <path class="cls-1" d="M52.43,41.92c6.69,0,11.22,3.06,15,7.48a18.07,18.07,0,0,1,4.73,12.85c-0.28,6-4.49,10.14-10.52,10.21S50.7,70,46.08,66.61A17,17,0,0,1,40.21,59c-3-7.64,1.1-15.09,9.24-16.73C50.62,42.05,51.82,42,52.43,41.92Z"/>
    <path class="cls-1" d="M179.27,65c-5.15,0-8.28-.9-10.7-3.47-2.92-3.11-3.49-6.87-2.38-10.84,1.89-6.79,5.55-12.25,12.22-15.24C184,33,190,33.85,194,37.67a12.61,12.61,0,0,1,2.47,15.78C192.32,60.62,185.93,64.51,179.27,65Z"/>
    <path class="cls-1" d="M49.19,163.72l-4.13.34c0.09-1.69.22-3.31,0.26-4.93,0.07-2.64.14-5.27,0.1-7.91,0-.8,0-1.87-1.22-2-1.1-.12-1.83.53-2.08,1.85a7.15,7.15,0,0,0-.07,1.31q0,4.74,0,9.47c0,0.44,0,.87,0,1.44l-4.54.35V146.08l3.68-.28,0.23,1.79a7.54,7.54,0,0,1,1.31-1.18A11.68,11.68,0,0,1,46,145c1.66-.29,2.84.57,3.25,2.37,0.64-.59,1.14-1.08,1.68-1.52a4.42,4.42,0,0,1,3.73-.82,2.4,2.4,0,0,1,2.23,2,49.92,49.92,0,0,1,.45,6.31c0,3.07-.29,6.15-0.37,9.22a1.07,1.07,0,0,1-1.2,1.23l-3,.2c0-.55,0-1.09,0-1.62,0.08-3.79.19-7.58,0.22-11.37,0-.87-0.17-1.82-1.4-1.85a1.74,1.74,0,0,0-1.78,1.94q-0.22,6-.45,12C49.28,163.28,49.24,163.43,49.19,163.72Z"/>
    <path class="cls-1" d="M63.75,163l-0.12,1.47h-3.7V139.54h4.72l-0.36,6.83,1-.68c2.11-1.44,4.38-1,5.56,1.28a13,13,0,0,1,1.31,4.19,18.25,18.25,0,0,1-1.34,10.54,6.11,6.11,0,0,1-1,1.49c-1.54,1.66-3.29,2.29-5.19.55C64.43,163.52,64.18,163.33,63.75,163Zm4.68-8.86a35.5,35.5,0,0,0-.67-4.2,2.08,2.08,0,0,0-1.42-1.18,2.06,2.06,0,0,0-1.57.75,4.13,4.13,0,0,0-.82,1.95,25.62,25.62,0,0,0-.39,4.52,19.07,19.07,0,0,0,.69,4.33,1.85,1.85,0,0,0,1.38,1,2.37,2.37,0,0,0,1.52-.88,3.1,3.1,0,0,0,.64-1.52C68,157.36,68.22,155.77,68.43,154.12Z"/>
    <path class="cls-1" d="M196.06,139.24h4.71l-0.51,7.94,0.76-.51a15.76,15.76,0,0,1,2.31-1.45c2.26-.94,4-0.15,4.89,2.15a19.75,19.75,0,0,1,.81,8.28c-0.16,2.43-.44,4.85-0.59,7.28a0.93,0.93,0,0,1-1,1.12h-3.15c0.19-3.43.41-6.85,0.55-10.27a24,24,0,0,0-.21-3.46,1.62,1.62,0,0,0-1.5-1.73,1.84,1.84,0,0,0-2,1.44,33.11,33.11,0,0,0-.84,5.3c-0.14,2.43,0,4.88,0,7.31,0,0.27,0,.54-0.07.86h-4.12V139.24Z"/>
    <path class="cls-1" d="M210.69,154.74c0.47-2.29.76-4.63,1.45-6.85a4.92,4.92,0,0,1,5.19-3.6,4.85,4.85,0,0,1,4.92,3.8,22,22,0,0,1-.1,12.87,5,5,0,0,1-5,3.9c-2.92.07-4.53-1.09-5.39-3.91a9.87,9.87,0,0,1-.43-1.74c-0.17-1.46-.27-2.94-0.4-4.41Zm4.23,0.13c0.21,1.54.38,3.16,0.68,4.76a1.54,1.54,0,0,0,1.52,1.45,1.5,1.5,0,0,0,1.4-1.54,22.29,22.29,0,0,0,0-9.39,2.35,2.35,0,0,0-1.43-1.48c-0.92-.21-1.4.65-1.54,1.48C215.28,151.67,215.12,153.22,214.91,154.87Z"/>
    <path class="cls-1" d="M151,163.54h-4.21V146.36h4.32l0.2,1.27a5.69,5.69,0,0,1,.88-0.79,14.43,14.43,0,0,1,3-1.53,2.64,2.64,0,0,1,3.28,1.55,12.19,12.19,0,0,1,1.24,4.32c0.1,4.21-.09,8.43-0.17,12.78l-4.68.24c0.2-2.26.45-4.38,0.56-6.51s0.15-4.23.1-6.35c0-1.72-.78-2.43-2.07-2.32a1.78,1.78,0,0,0-1.67,1.49,32.53,32.53,0,0,0-.78,5.06C151,158.19,151,160.82,151,163.54Z"/>
    <path class="cls-1" d="M86,164.34c-0.36,0-.52,0-0.67,0-2.39,0-2.39,0-2.79-2.14a22.06,22.06,0,0,1-2.08,1.51,4.42,4.42,0,0,1-6.06-1.5,4.24,4.24,0,0,1,1.28-5.9c1.75-1.26,3.57-2.41,5.31-3.67a2.67,2.67,0,0,0,1-3.09,1.59,1.59,0,0,0-3.16.07,16.19,16.19,0,0,0-.14,2.07c-1.12,0-2.23-.05-3.33,0-0.9.06-1.09-.37-1.07-1.14A6,6,0,0,1,79.44,145c4-.49,6.34,1.2,6.55,5.22C86.23,154.86,86,159.56,86,164.34Zm-3.79-9.64-0.3-.19c-1.39,1.34-2.83,2.64-4.16,4a1.43,1.43,0,0,0,.06,2.07,1.56,1.56,0,0,0,2.09.11,3.91,3.91,0,0,0,.92-0.76C82.25,158.46,82.14,156.55,82.26,154.7Z"/>
    <path class="cls-1" d="M140.07,147h4v17.56h-3.72l-0.16-1.8c-0.39.28-.65,0.46-0.9,0.66-2.86,2.32-5.84,1.53-7.12-1.92a16.19,16.19,0,0,1-.66-7.23c0.25-2.73.7-5.45,1.07-8.15h4c-0.24,3.56-.51,7-0.68,10.48a9.39,9.39,0,0,0,.34,2.72c0.19,0.77.58,1.72,1.53,1.52a2.33,2.33,0,0,0,1.51-1.41,28.17,28.17,0,0,0,.76-5.18C140.16,151.93,140.07,149.57,140.07,147Z"/>
    <path class="cls-1" d="M129,164.38h-1c-2.17,0-2.17,0-2.4-2.11a24.34,24.34,0,0,1-2,1.41,4.34,4.34,0,0,1-6.09-1.36,4.24,4.24,0,0,1,1.35-6.06c1.56-1.11,3.19-2.13,4.76-3.22a3,3,0,0,0,1.43-3.39,1.64,1.64,0,0,0-1.63-1.47,1.58,1.58,0,0,0-1.59,1.51,16.75,16.75,0,0,0-.11,2c-1.24,0-2.5.06-3.75,0a1.32,1.32,0,0,1-.62-1,5.94,5.94,0,0,1,4.93-5.68c4-.61,6.51,1.14,6.71,5.15C129.18,154.83,129,159.54,129,164.38Zm-3.83-9.89c-1.3,1.07-2.39,1.93-3.43,2.83a5.9,5.9,0,0,0-1,1.19c-0.49.73-.65,1.65,0.13,2.12a3.25,3.25,0,0,0,2.06,0,2.18,2.18,0,0,0,1-.83C125.17,158.33,125.16,156.55,125.17,154.49Z"/>
    <path class="cls-1" d="M27.38,151.65H23.16a5.33,5.33,0,0,1,1.12-4.46,6.47,6.47,0,0,1,6.81-2.11,4.77,4.77,0,0,1,3.56,4.75c0.16,4.71.1,9.42,0.13,14.13a1.26,1.26,0,0,1-.15.38,19.28,19.28,0,0,1-2.48,0c-1.33-.17-0.26-1.47-0.89-2a21.18,21.18,0,0,1-2.18,1.53,4.36,4.36,0,0,1-6-1.59,4.15,4.15,0,0,1,1.21-5.81c1.51-1.11,3.13-2.07,4.67-3.14s2.1-2.22,1.68-3.72a1.55,1.55,0,0,0-1.58-1.35,1.58,1.58,0,0,0-1.57,1.39A14.62,14.62,0,0,0,27.38,151.65Zm3.67,3-0.36-.15c-1.29,1.17-2.65,2.26-3.85,3.52-0.95,1-.94,2-0.25,2.65a2,2,0,0,0,2.68-.44,4,4,0,0,0,1.12-1.65C30.73,157.32,30.85,156,31.05,154.67Z"/>
    <path class="cls-1" d="M174.07,164.29H170.8L170.68,162l-1.13,1c-2.92,2.58-7,1.27-7.76-2.52-0.37-1.91.59-3.31,2.11-4.36s2.95-1.91,4.39-2.91c1.12-.78,2-1.71,1.76-3.27-0.16-.92-0.43-1.75-1.57-1.78a1.67,1.67,0,0,0-1.73,1.63,14.23,14.23,0,0,0-.11,1.78h-4.11c-0.79-2.91,1.49-6.14,4.73-6.64,3.95-.62,6.6,1.3,6.77,5.29C174.21,154.9,174.07,159.54,174.07,164.29Zm-3.81-9.62-0.29-.13c-1.27,1.15-2.59,2.24-3.79,3.46-1,1-1,2-.3,2.65s1.69,0.5,2.66-.39C170.22,158.71,170.08,156.65,170.25,154.68Z"/>
    <path class="cls-1" d="M20.83,143.52a16.58,16.58,0,0,0-2.23-1.06c-1.22-.38-2.49-0.48-3.44.6a3.29,3.29,0,0,0-.65,3.69,13.41,13.41,0,0,0,1.91,2.71c0.93,1.14,2.06,2.14,2.88,3.35a8.61,8.61,0,0,1,1.13,8.1,6,6,0,0,1-6.82,3.83c-2.86-.51-2.86-0.51-2.74-3.37,0-.44,0-0.88,0-1.29a21.5,21.5,0,0,0,3.52,1,2.22,2.22,0,0,0,2.69-2.55,6.74,6.74,0,0,0-1.11-3.3c-1.07-1.52-2.52-2.77-3.7-4.23a8.47,8.47,0,0,1-2.14-7,6.28,6.28,0,0,1,6.74-5.47C21,138.69,21.61,139.44,20.83,143.52Z"/>
    <path class="cls-1" d="M183.75,160a21.43,21.43,0,0,0,2.3,1c2.65,0.76,4.54-1.06,3.67-3.68a12.57,12.57,0,0,0-2.08-3.42c-1.22-1.62-2.76-3-3.8-4.74a7.12,7.12,0,0,1,1.1-9c2-1.85,6.57-2.16,8.69-.57a1,1,0,0,1,.32.79c-0.06,1.07-.19,2.13-0.29,3.24a21.1,21.1,0,0,0-2.27-1.07,3,3,0,0,0-3.45.56,3.4,3.4,0,0,0-.6,3.91,12.85,12.85,0,0,0,1.9,2.59c0.72,0.86,1.56,1.61,2.26,2.47a9.24,9.24,0,0,1,2,8.09c-0.7,3.22-3.81,5.51-8.11,4.49-1.9-.45-2-0.51-1.8-2.44C183.61,161.45,183.67,160.78,183.75,160Z"/>
    <path class="cls-1" d="M114.24,151.45v3.28h-3.85v9.6h-3.94V139h9.73v3.65c-1.5-.12-3-0.2-4.4-0.35-1-.1-1.32.24-1.32,1.25,0,2.23-.09,4.47-0.21,6.7,0,0.87.19,1.25,1.12,1.17S113.2,151.45,114.24,151.45Z"/>
    <path class="cls-1" d="M98,149.24H95c-0.1,1.67-.25,3.25-0.28,4.83q-0.07,4.61,0,9.22c0,0.83-.2,1.16-1.06,1.1s-1.91,0-2.93,0v-15h-3l0.18-3.53h2.79c0-1.42.07-2.81,0-4.19-0.06-.9.2-1.23,1.1-1.2,1.23,0,2.46,0,3.82,0l-0.46,5.4h3.06Z"/>
  </g>
</svg>
